<mxfile host="app.diagrams.net" agent="Mozilla/5.0 (X11; Linux x86_64; rv:132.0) Gecko/20100101 Firefox/132.0" version="24.8.6">
  <diagram name="Page-1" id="gUCxr8V33VAZfVIEqKJq">
    <mxGraphModel dx="1152" dy="535" grid="1" gridSize="10" guides="1" tooltips="1" connect="1" arrows="1" fold="1" page="1" pageScale="1" pageWidth="850" pageHeight="1100" math="0" shadow="0">
      <root>
        <mxCell id="0" />
        <mxCell id="1" parent="0" />
        <mxCell id="UK7j7TPJg_n4pmbXTLd8-10" style="edgeStyle=orthogonalEdgeStyle;rounded=0;orthogonalLoop=1;jettySize=auto;html=1;exitX=0.5;exitY=0.5;exitDx=0;exitDy=0;exitPerimeter=0;entryX=0;entryY=0.5;entryDx=0;entryDy=0;" edge="1" parent="1" source="UK7j7TPJg_n4pmbXTLd8-1" target="UK7j7TPJg_n4pmbXTLd8-5">
          <mxGeometry relative="1" as="geometry">
            <Array as="points">
              <mxPoint x="230" y="250" />
              <mxPoint x="230" y="120" />
            </Array>
          </mxGeometry>
        </mxCell>
        <mxCell id="UK7j7TPJg_n4pmbXTLd8-11" style="edgeStyle=orthogonalEdgeStyle;rounded=0;orthogonalLoop=1;jettySize=auto;html=1;exitX=0.5;exitY=0.5;exitDx=0;exitDy=0;exitPerimeter=0;entryX=0;entryY=0.5;entryDx=0;entryDy=0;" edge="1" parent="1" source="UK7j7TPJg_n4pmbXTLd8-1" target="UK7j7TPJg_n4pmbXTLd8-3">
          <mxGeometry relative="1" as="geometry" />
        </mxCell>
        <mxCell id="UK7j7TPJg_n4pmbXTLd8-12" style="edgeStyle=orthogonalEdgeStyle;rounded=0;orthogonalLoop=1;jettySize=auto;html=1;exitX=0.5;exitY=0.5;exitDx=0;exitDy=0;exitPerimeter=0;entryX=0.5;entryY=0;entryDx=0;entryDy=0;" edge="1" parent="1" source="UK7j7TPJg_n4pmbXTLd8-1" target="UK7j7TPJg_n4pmbXTLd8-2">
          <mxGeometry relative="1" as="geometry">
            <Array as="points">
              <mxPoint x="230" y="250" />
              <mxPoint x="230" y="50" />
              <mxPoint x="565" y="50" />
            </Array>
          </mxGeometry>
        </mxCell>
        <mxCell id="UK7j7TPJg_n4pmbXTLd8-13" style="edgeStyle=orthogonalEdgeStyle;rounded=0;orthogonalLoop=1;jettySize=auto;html=1;exitX=0.5;exitY=0.5;exitDx=0;exitDy=0;exitPerimeter=0;entryX=0;entryY=0.5;entryDx=0;entryDy=0;" edge="1" parent="1" source="UK7j7TPJg_n4pmbXTLd8-1" target="UK7j7TPJg_n4pmbXTLd8-4">
          <mxGeometry relative="1" as="geometry">
            <Array as="points">
              <mxPoint x="230" y="250" />
              <mxPoint x="230" y="330" />
            </Array>
          </mxGeometry>
        </mxCell>
        <mxCell id="UK7j7TPJg_n4pmbXTLd8-1" value="Usuário" style="shape=umlActor;verticalLabelPosition=bottom;verticalAlign=top;html=1;outlineConnect=0;" vertex="1" parent="1">
          <mxGeometry x="140" y="220" width="30" height="60" as="geometry" />
        </mxCell>
        <mxCell id="UK7j7TPJg_n4pmbXTLd8-6" value="" style="edgeStyle=orthogonalEdgeStyle;rounded=0;orthogonalLoop=1;jettySize=auto;html=1;dashed=1;" edge="1" parent="1" source="UK7j7TPJg_n4pmbXTLd8-2" target="UK7j7TPJg_n4pmbXTLd8-5">
          <mxGeometry relative="1" as="geometry" />
        </mxCell>
        <mxCell id="UK7j7TPJg_n4pmbXTLd8-2" value="Adicionar gasto" style="ellipse;whiteSpace=wrap;html=1;" vertex="1" parent="1">
          <mxGeometry x="505" y="80" width="120" height="80" as="geometry" />
        </mxCell>
        <mxCell id="UK7j7TPJg_n4pmbXTLd8-7" style="edgeStyle=orthogonalEdgeStyle;rounded=0;orthogonalLoop=1;jettySize=auto;html=1;exitX=0.5;exitY=0;exitDx=0;exitDy=0;entryX=0.5;entryY=1;entryDx=0;entryDy=0;dashed=1;" edge="1" parent="1" source="UK7j7TPJg_n4pmbXTLd8-3" target="UK7j7TPJg_n4pmbXTLd8-5">
          <mxGeometry relative="1" as="geometry">
            <Array as="points">
              <mxPoint x="565" y="190" />
              <mxPoint x="365" y="190" />
            </Array>
          </mxGeometry>
        </mxCell>
        <mxCell id="UK7j7TPJg_n4pmbXTLd8-3" value="Adicionar entrada" style="ellipse;whiteSpace=wrap;html=1;" vertex="1" parent="1">
          <mxGeometry x="505" y="210" width="120" height="80" as="geometry" />
        </mxCell>
        <mxCell id="UK7j7TPJg_n4pmbXTLd8-4" value="Visualizar relatório" style="ellipse;whiteSpace=wrap;html=1;" vertex="1" parent="1">
          <mxGeometry x="305" y="290" width="120" height="80" as="geometry" />
        </mxCell>
        <mxCell id="UK7j7TPJg_n4pmbXTLd8-5" value="Gerenciar despesas pessoais" style="ellipse;whiteSpace=wrap;html=1;" vertex="1" parent="1">
          <mxGeometry x="305" y="80" width="120" height="80" as="geometry" />
        </mxCell>
        <mxCell id="UK7j7TPJg_n4pmbXTLd8-8" value="&amp;lt;include&amp;gt;" style="text;html=1;align=center;verticalAlign=middle;resizable=0;points=[];autosize=1;strokeColor=none;fillColor=none;" vertex="1" parent="1">
          <mxGeometry x="425" y="90" width="80" height="30" as="geometry" />
        </mxCell>
        <mxCell id="UK7j7TPJg_n4pmbXTLd8-9" value="&amp;lt;include&amp;gt;" style="text;html=1;align=center;verticalAlign=middle;resizable=0;points=[];autosize=1;strokeColor=none;fillColor=none;" vertex="1" parent="1">
          <mxGeometry x="410" y="160" width="80" height="30" as="geometry" />
        </mxCell>
      </root>
    </mxGraphModel>
  </diagram>
</mxfile>
